<svg width="20" height="21" viewBox="0 0 20 21" fill="none" xmlns="http://www.w3.org/2000/svg">
<rect width="20" height="21" fill="#DADADA"/>
<path d="M-5432 -2882C-5432 -2883.1 -5431.1 -2884 -5430 -2884H35260C35261.1 -2884 35262 -2883.1 35262 -2882V6008C35262 6009.1 35261.1 6010 35260 6010H-5430C-5431.1 6010 -5432 6009.1 -5432 6008V-2882Z" fill="white"/>
<path d="M-5430 -2883H35260V-2885H-5430V-2883ZM35261 -2882V6008H35263V-2882H35261ZM35260 6009H-5430V6011H35260V6009ZM-5431 6008V-2882H-5433V6008H-5431ZM-5430 6009C-5430.55 6009 -5431 6008.55 -5431 6008H-5433C-5433 6009.66 -5431.66 6011 -5430 6011V6009ZM35261 6008C35261 6008.55 35260.6 6009 35260 6009V6011C35261.7 6011 35263 6009.66 35263 6008H35261ZM35260 -2883C35260.6 -2883 35261 -2882.55 35261 -2882H35263C35263 -2883.66 35261.7 -2885 35260 -2885V-2883ZM-5430 -2885C-5431.66 -2885 -5433 -2883.66 -5433 -2882H-5431C-5431 -2882.55 -5430.55 -2883 -5430 -2883V-2885Z" fill="black" fill-opacity="0.1"/>
<g clip-path="url(#clip0_19_10)" filter="url(#filter0_d_19_10)">
<rect width="1512" height="2694" transform="translate(-720 -2394)" fill="url(#paint0_linear_19_10)"/>
<rect width="1512" height="532" transform="translate(-720 -232)" fill="black"/>
<mask id="mask0_19_10" style="mask-type:alpha" maskUnits="userSpaceOnUse" x="0" y="0" width="72" height="21">
<path d="M9.99479 19.7227C7.43372 19.7227 7.1318 19.7091 6.13236 19.6655C5.35297 19.6399 4.58367 19.4817 3.85758 19.1977C2.60131 18.7095 1.60793 17.7172 1.11952 16.4625C0.846029 15.7348 0.698519 14.966 0.683301 14.1889C0.625 13.193 0.625 12.8666 0.625 10.3289C0.625 7.76428 0.638534 7.46488 0.683301 6.47207C0.698852 5.69604 0.846357 4.92829 1.11952 4.20161C1.6074 2.9453 2.60239 1.95213 3.8607 1.46542C4.58805 1.19118 5.35711 1.0435 6.13444 1.02879C7.12868 0.972656 7.45558 0.972656 9.99479 0.972656C12.5767 0.972656 12.8734 0.986171 13.8572 1.02879C14.6366 1.04363 15.4077 1.19129 16.1372 1.46542C17.3952 1.95268 18.39 2.94566 18.8784 4.20161C19.1565 4.93888 19.3048 5.71863 19.3167 6.50638C19.375 7.5023 19.375 7.8277 19.375 10.3643C19.375 12.9009 19.3604 13.2336 19.3167 14.218C19.3012 14.9959 19.1533 15.7654 18.8794 16.4937C18.3898 17.7492 17.3949 18.7419 16.1372 19.2299C15.4087 19.5025 14.6392 19.6497 13.8614 19.6655C12.8672 19.7227 12.5413 19.7227 9.99479 19.7227ZM9.9594 2.61832C7.4129 2.61832 7.14846 2.6308 6.15422 2.6755C5.56078 2.68335 4.97308 2.7927 4.41664 2.99881C3.59497 3.31278 2.94478 3.95938 2.62701 4.77859C2.41902 5.34027 2.30949 5.93355 2.30323 6.53237C2.24806 7.53973 2.24806 7.80378 2.24806 10.3289C2.24806 12.824 2.25743 13.1265 2.30323 14.1276C2.31255 14.7204 2.42202 15.3073 2.62701 15.8637C2.94525 16.6824 3.59532 17.3285 4.41664 17.6424C4.9727 17.8499 5.56064 17.9593 6.15422 17.9658C7.16199 18.024 7.42747 18.024 9.9594 18.024C12.5132 18.024 12.7776 18.0115 13.7635 17.9658C14.3574 17.9585 14.9455 17.8492 15.5022 17.6424C16.3189 17.3258 16.9648 16.6811 17.2824 15.8658C17.49 15.3036 17.5995 14.7101 17.6062 14.111H17.6176C17.6624 13.1171 17.6624 12.852 17.6624 10.3123C17.6624 7.7726 17.651 7.50542 17.6062 6.51262C17.5969 5.92052 17.4874 5.33426 17.2824 4.77859C16.9655 3.96207 16.3195 3.31619 15.5022 2.99881C14.9456 2.79167 14.3574 2.68228 13.7635 2.6755C12.7568 2.61832 12.4934 2.61832 9.9594 2.61832ZM9.99479 15.1308C8.04795 15.1321 6.29208 13.962 5.54608 12.1664C4.80008 10.3707 5.2109 8.30313 6.58693 6.92789C7.96296 5.55265 10.0332 5.14064 11.8321 5.88401C13.631 6.62738 14.8042 8.3797 14.8046 10.3237C14.8018 12.9758 12.6507 15.1256 9.99479 15.1308ZM9.99479 7.2029C8.26986 7.2029 6.87153 8.59922 6.87153 10.3217C6.87153 12.0441 8.26986 13.4404 9.99479 13.4404C11.7197 13.4404 13.1181 12.0441 13.1181 10.3217C13.1141 8.60088 11.7181 7.2069 9.99479 7.2029ZM14.992 6.46168C14.373 6.45938 13.8727 5.95705 13.8739 5.33893C13.875 4.72081 14.3772 4.22033 14.9962 4.22033C15.6152 4.22033 16.1173 4.72081 16.1185 5.33892C16.1188 5.63714 16.0001 5.9232 15.7887 6.13387C15.5774 6.34455 15.2907 6.46251 14.992 6.46168Z" fill="#111827"/>
</mask>
<g mask="url(#mask0_19_10)">
<rect x="-13" y="-25.6523" width="104" height="73" fill="url(#paint1_linear_19_10)"/>
</g>
</g>
<defs>
<filter id="filter0_d_19_10" x="-724" y="-2394" width="1520" height="2702" filterUnits="userSpaceOnUse" color-interpolation-filters="sRGB">
<feFlood flood-opacity="0" result="BackgroundImageFix"/>
<feColorMatrix in="SourceAlpha" type="matrix" values="0 0 0 0 0 0 0 0 0 0 0 0 0 0 0 0 0 0 127 0" result="hardAlpha"/>
<feOffset dy="4"/>
<feGaussianBlur stdDeviation="2"/>
<feComposite in2="hardAlpha" operator="out"/>
<feColorMatrix type="matrix" values="0 0 0 0 0 0 0 0 0 0 0 0 0 0 0 0 0 0 0.25 0"/>
<feBlend mode="normal" in2="BackgroundImageFix" result="effect1_dropShadow_19_10"/>
<feBlend mode="normal" in="SourceGraphic" in2="effect1_dropShadow_19_10" result="shape"/>
</filter>
<linearGradient id="paint0_linear_19_10" x1="756" y1="0" x2="756" y2="2694" gradientUnits="userSpaceOnUse">
<stop stop-color="#162B4C"/>
<stop offset="0.0001" stop-color="#3468B2"/>
</linearGradient>
<linearGradient id="paint1_linear_19_10" x1="39" y1="-25.6523" x2="39" y2="47.3477" gradientUnits="userSpaceOnUse">
<stop stop-color="#38B76B"/>
<stop offset="0.47" stop-color="#33A5AE"/>
<stop offset="1" stop-color="#3578DE"/>
</linearGradient>
<clipPath id="clip0_19_10">
<rect width="1512" height="2694" fill="white" transform="translate(-720 -2394)"/>
</clipPath>
</defs>
</svg>
